<?xml version="1.0" encoding="utf-8" standalone="no"?>
<!DOCTYPE svg PUBLIC "-//W3C//DTD SVG 1.1//EN"
  "http://www.w3.org/Graphics/SVG/1.1/DTD/svg11.dtd">
<svg height="248.518125pt" version="1.1" viewBox="0 0 368.925 248.518125" width="368.925pt" xmlns="http://www.w3.org/2000/svg" xmlns:xlink="http://www.w3.org/1999/xlink">
 <metadata>
  <rdf:RDF xmlns:cc="http://creativecommons.org/ns#" xmlns:dc="http://purl.org/dc/elements/1.1/" xmlns:rdf="http://www.w3.org/1999/02/22-rdf-syntax-ns#">
   <cc:Work>
    <dc:type rdf:resource="http://purl.org/dc/dcmitype/StillImage"/>
    <dc:date>2023-12-07T12:33:55.864777</dc:date>
    <dc:format>image/svg+xml</dc:format>
    <dc:creator>
     <cc:Agent>
      <dc:title>Matplotlib v3.4.3, https://matplotlib.org/</dc:title>
     </cc:Agent>
    </dc:creator>
   </cc:Work>
  </rdf:RDF>
 </metadata>
 <defs>
  <style type="text/css">*{stroke-linecap:butt;stroke-linejoin:round;}</style>
 </defs>
 <g id="figure_1">
  <g id="patch_1">
   <path d="M -0 248.518125 
L 368.925 248.518125 
L 368.925 0 
L -0 0 
z
" style="fill:none;"/>
  </g>
  <g id="axes_1">
   <g id="patch_2">
    <path d="M 26.925 224.64 
L 361.725 224.64 
L 361.725 7.2 
L 26.925 7.2 
z
" style="fill:#ffffff;"/>
   </g>
   <g id="PathCollection_1">
    <defs>
     <path d="M 0 1.581139 
C 0.419323 1.581139 0.821528 1.41454 1.118034 1.118034 
C 1.41454 0.821528 1.581139 0.419323 1.581139 0 
C 1.581139 -0.419323 1.41454 -0.821528 1.118034 -1.118034 
C 0.821528 -1.41454 0.419323 -1.581139 0 -1.581139 
C -0.419323 -1.581139 -0.821528 -1.41454 -1.118034 -1.118034 
C -1.41454 -0.821528 -1.581139 -0.419323 -1.581139 0 
C -1.581139 0.419323 -1.41454 0.821528 -1.118034 1.118034 
C -0.821528 1.41454 -0.419323 1.581139 0 1.581139 
z
" id="m44d741543e" style="stroke:#0000ff;"/>
    </defs>
    <g clip-path="url(#p2df192ffb0)">
     <use style="fill:#0000ff;stroke:#0000ff;" x="42.143182" xlink:href="#m44d741543e" y="200.990265"/>
     <use style="fill:#0000ff;stroke:#0000ff;" x="45.217562" xlink:href="#m44d741543e" y="211.326482"/>
     <use style="fill:#0000ff;stroke:#0000ff;" x="48.291942" xlink:href="#m44d741543e" y="201.205446"/>
     <use style="fill:#0000ff;stroke:#0000ff;" x="51.366322" xlink:href="#m44d741543e" y="205.883986"/>
     <use style="fill:#0000ff;stroke:#0000ff;" x="54.440702" xlink:href="#m44d741543e" y="195.012321"/>
     <use style="fill:#0000ff;stroke:#0000ff;" x="57.515083" xlink:href="#m44d741543e" y="200.063265"/>
     <use style="fill:#0000ff;stroke:#0000ff;" x="60.589463" xlink:href="#m44d741543e" y="202.245541"/>
     <use style="fill:#0000ff;stroke:#0000ff;" x="63.663843" xlink:href="#m44d741543e" y="207.760426"/>
     <use style="fill:#0000ff;stroke:#0000ff;" x="66.738223" xlink:href="#m44d741543e" y="190.802361"/>
     <use style="fill:#0000ff;stroke:#0000ff;" x="69.812603" xlink:href="#m44d741543e" y="17.083636"/>
     <use style="fill:#0000ff;stroke:#0000ff;" x="72.886983" xlink:href="#m44d741543e" y="202.551242"/>
     <use style="fill:#0000ff;stroke:#0000ff;" x="75.961364" xlink:href="#m44d741543e" y="199.665103"/>
     <use style="fill:#0000ff;stroke:#0000ff;" x="79.035744" xlink:href="#m44d741543e" y="202.189797"/>
     <use style="fill:#0000ff;stroke:#0000ff;" x="82.110124" xlink:href="#m44d741543e" y="192.417913"/>
     <use style="fill:#0000ff;stroke:#0000ff;" x="85.184504" xlink:href="#m44d741543e" y="197.631022"/>
     <use style="fill:#0000ff;stroke:#0000ff;" x="88.258884" xlink:href="#m44d741543e" y="201.858591"/>
     <use style="fill:#0000ff;stroke:#0000ff;" x="91.333264" xlink:href="#m44d741543e" y="197.942702"/>
     <use style="fill:#0000ff;stroke:#0000ff;" x="94.407645" xlink:href="#m44d741543e" y="202.784217"/>
     <use style="fill:#0000ff;stroke:#0000ff;" x="97.482025" xlink:href="#m44d741543e" y="196.486962"/>
     <use style="fill:#0000ff;stroke:#0000ff;" x="100.556405" xlink:href="#m44d741543e" y="203.489737"/>
     <use style="fill:#0000ff;stroke:#0000ff;" x="103.630785" xlink:href="#m44d741543e" y="203.97183"/>
     <use style="fill:#0000ff;stroke:#0000ff;" x="106.705165" xlink:href="#m44d741543e" y="196.902374"/>
     <use style="fill:#0000ff;stroke:#0000ff;" x="109.779545" xlink:href="#m44d741543e" y="199.970256"/>
     <use style="fill:#0000ff;stroke:#0000ff;" x="112.853926" xlink:href="#m44d741543e" y="200.72295"/>
     <use style="fill:#0000ff;stroke:#0000ff;" x="115.928306" xlink:href="#m44d741543e" y="196.650782"/>
     <use style="fill:#0000ff;stroke:#0000ff;" x="119.002686" xlink:href="#m44d741543e" y="193.930627"/>
     <use style="fill:#0000ff;stroke:#0000ff;" x="122.077066" xlink:href="#m44d741543e" y="202.877372"/>
     <use style="fill:#0000ff;stroke:#0000ff;" x="125.151446" xlink:href="#m44d741543e" y="203.461918"/>
     <use style="fill:#0000ff;stroke:#0000ff;" x="128.225826" xlink:href="#m44d741543e" y="196.162553"/>
     <use style="fill:#0000ff;stroke:#0000ff;" x="131.300207" xlink:href="#m44d741543e" y="195.190832"/>
     <use style="fill:#0000ff;stroke:#0000ff;" x="134.374587" xlink:href="#m44d741543e" y="196.284129"/>
     <use style="fill:#0000ff;stroke:#0000ff;" x="137.448967" xlink:href="#m44d741543e" y="206.240198"/>
     <use style="fill:#0000ff;stroke:#0000ff;" x="140.523347" xlink:href="#m44d741543e" y="204.115936"/>
     <use style="fill:#0000ff;stroke:#0000ff;" x="143.597727" xlink:href="#m44d741543e" y="205.366475"/>
     <use style="fill:#0000ff;stroke:#0000ff;" x="146.672107" xlink:href="#m44d741543e" y="193.31582"/>
     <use style="fill:#0000ff;stroke:#0000ff;" x="149.746488" xlink:href="#m44d741543e" y="199.771464"/>
     <use style="fill:#0000ff;stroke:#0000ff;" x="152.820868" xlink:href="#m44d741543e" y="198.609415"/>
     <use style="fill:#0000ff;stroke:#0000ff;" x="155.895248" xlink:href="#m44d741543e" y="198.926665"/>
     <use style="fill:#0000ff;stroke:#0000ff;" x="158.969628" xlink:href="#m44d741543e" y="202.884093"/>
     <use style="fill:#0000ff;stroke:#0000ff;" x="162.044008" xlink:href="#m44d741543e" y="197.621759"/>
     <use style="fill:#0000ff;stroke:#0000ff;" x="165.118388" xlink:href="#m44d741543e" y="210.531749"/>
     <use style="fill:#0000ff;stroke:#0000ff;" x="168.192769" xlink:href="#m44d741543e" y="205.910713"/>
     <use style="fill:#0000ff;stroke:#0000ff;" x="171.267149" xlink:href="#m44d741543e" y="208.561516"/>
     <use style="fill:#0000ff;stroke:#0000ff;" x="174.341529" xlink:href="#m44d741543e" y="199.776226"/>
     <use style="fill:#0000ff;stroke:#0000ff;" x="177.415909" xlink:href="#m44d741543e" y="200.637539"/>
     <use style="fill:#0000ff;stroke:#0000ff;" x="180.490289" xlink:href="#m44d741543e" y="211.510682"/>
     <use style="fill:#0000ff;stroke:#0000ff;" x="183.564669" xlink:href="#m44d741543e" y="192.038604"/>
     <use style="fill:#0000ff;stroke:#0000ff;" x="186.63905" xlink:href="#m44d741543e" y="202.571491"/>
     <use style="fill:#0000ff;stroke:#0000ff;" x="189.71343" xlink:href="#m44d741543e" y="203.709923"/>
     <use style="fill:#0000ff;stroke:#0000ff;" x="192.78781" xlink:href="#m44d741543e" y="205.156959"/>
     <use style="fill:#0000ff;stroke:#0000ff;" x="195.86219" xlink:href="#m44d741543e" y="195.012703"/>
     <use style="fill:#0000ff;stroke:#0000ff;" x="198.93657" xlink:href="#m44d741543e" y="195.03843"/>
     <use style="fill:#0000ff;stroke:#0000ff;" x="202.01095" xlink:href="#m44d741543e" y="201.742367"/>
     <use style="fill:#0000ff;stroke:#0000ff;" x="205.085331" xlink:href="#m44d741543e" y="202.406448"/>
     <use style="fill:#0000ff;stroke:#0000ff;" x="208.159711" xlink:href="#m44d741543e" y="202.898496"/>
     <use style="fill:#0000ff;stroke:#0000ff;" x="211.234091" xlink:href="#m44d741543e" y="201.082044"/>
     <use style="fill:#0000ff;stroke:#0000ff;" x="214.308471" xlink:href="#m44d741543e" y="201.779864"/>
     <use style="fill:#0000ff;stroke:#0000ff;" x="217.382851" xlink:href="#m44d741543e" y="201.86168"/>
     <use style="fill:#0000ff;stroke:#0000ff;" x="220.457231" xlink:href="#m44d741543e" y="197.554141"/>
     <use style="fill:#0000ff;stroke:#0000ff;" x="223.531612" xlink:href="#m44d741543e" y="203.428379"/>
     <use style="fill:#0000ff;stroke:#0000ff;" x="226.605992" xlink:href="#m44d741543e" y="201.97931"/>
     <use style="fill:#0000ff;stroke:#0000ff;" x="229.680372" xlink:href="#m44d741543e" y="201.428651"/>
     <use style="fill:#0000ff;stroke:#0000ff;" x="232.754752" xlink:href="#m44d741543e" y="200.431174"/>
     <use style="fill:#0000ff;stroke:#0000ff;" x="235.829132" xlink:href="#m44d741543e" y="199.182246"/>
     <use style="fill:#0000ff;stroke:#0000ff;" x="238.903512" xlink:href="#m44d741543e" y="203.130878"/>
     <use style="fill:#0000ff;stroke:#0000ff;" x="241.977893" xlink:href="#m44d741543e" y="207.748676"/>
     <use style="fill:#0000ff;stroke:#0000ff;" x="245.052273" xlink:href="#m44d741543e" y="205.781531"/>
     <use style="fill:#0000ff;stroke:#0000ff;" x="248.126653" xlink:href="#m44d741543e" y="199.986874"/>
     <use style="fill:#0000ff;stroke:#0000ff;" x="251.201033" xlink:href="#m44d741543e" y="201.786286"/>
     <use style="fill:#0000ff;stroke:#0000ff;" x="254.275413" xlink:href="#m44d741543e" y="205.991765"/>
     <use style="fill:#0000ff;stroke:#0000ff;" x="257.349793" xlink:href="#m44d741543e" y="206.655783"/>
     <use style="fill:#0000ff;stroke:#0000ff;" x="260.424174" xlink:href="#m44d741543e" y="200.875367"/>
     <use style="fill:#0000ff;stroke:#0000ff;" x="263.498554" xlink:href="#m44d741543e" y="210.076155"/>
     <use style="fill:#0000ff;stroke:#0000ff;" x="266.572934" xlink:href="#m44d741543e" y="203.288443"/>
     <use style="fill:#0000ff;stroke:#0000ff;" x="269.647314" xlink:href="#m44d741543e" y="202.354488"/>
     <use style="fill:#0000ff;stroke:#0000ff;" x="272.721694" xlink:href="#m44d741543e" y="200.665962"/>
     <use style="fill:#0000ff;stroke:#0000ff;" x="275.796074" xlink:href="#m44d741543e" y="204.860166"/>
     <use style="fill:#0000ff;stroke:#0000ff;" x="278.870455" xlink:href="#m44d741543e" y="204.938082"/>
     <use style="fill:#0000ff;stroke:#0000ff;" x="281.944835" xlink:href="#m44d741543e" y="207.048467"/>
     <use style="fill:#0000ff;stroke:#0000ff;" x="285.019215" xlink:href="#m44d741543e" y="201.505781"/>
     <use style="fill:#0000ff;stroke:#0000ff;" x="288.093595" xlink:href="#m44d741543e" y="214.756364"/>
     <use style="fill:#0000ff;stroke:#0000ff;" x="291.167975" xlink:href="#m44d741543e" y="205.444405"/>
     <use style="fill:#0000ff;stroke:#0000ff;" x="294.242355" xlink:href="#m44d741543e" y="203.212756"/>
     <use style="fill:#0000ff;stroke:#0000ff;" x="297.316736" xlink:href="#m44d741543e" y="213.657527"/>
     <use style="fill:#0000ff;stroke:#0000ff;" x="300.391116" xlink:href="#m44d741543e" y="199.536929"/>
     <use style="fill:#0000ff;stroke:#0000ff;" x="303.465496" xlink:href="#m44d741543e" y="199.676671"/>
     <use style="fill:#0000ff;stroke:#0000ff;" x="306.539876" xlink:href="#m44d741543e" y="207.812229"/>
     <use style="fill:#0000ff;stroke:#0000ff;" x="309.614256" xlink:href="#m44d741543e" y="205.06605"/>
     <use style="fill:#0000ff;stroke:#0000ff;" x="312.688636" xlink:href="#m44d741543e" y="208.154749"/>
     <use style="fill:#0000ff;stroke:#0000ff;" x="315.763017" xlink:href="#m44d741543e" y="196.717892"/>
     <use style="fill:#0000ff;stroke:#0000ff;" x="318.837397" xlink:href="#m44d741543e" y="208.866559"/>
     <use style="fill:#0000ff;stroke:#0000ff;" x="321.911777" xlink:href="#m44d741543e" y="201.594907"/>
     <use style="fill:#0000ff;stroke:#0000ff;" x="324.986157" xlink:href="#m44d741543e" y="200.347209"/>
     <use style="fill:#0000ff;stroke:#0000ff;" x="328.060537" xlink:href="#m44d741543e" y="211.299167"/>
     <use style="fill:#0000ff;stroke:#0000ff;" x="331.134917" xlink:href="#m44d741543e" y="204.897614"/>
     <use style="fill:#0000ff;stroke:#0000ff;" x="334.209298" xlink:href="#m44d741543e" y="199.26667"/>
     <use style="fill:#0000ff;stroke:#0000ff;" x="337.283678" xlink:href="#m44d741543e" y="208.330874"/>
     <use style="fill:#0000ff;stroke:#0000ff;" x="340.358058" xlink:href="#m44d741543e" y="206.805581"/>
     <use style="fill:#0000ff;stroke:#0000ff;" x="343.432438" xlink:href="#m44d741543e" y="209.601618"/>
     <use style="fill:#0000ff;stroke:#0000ff;" x="346.506818" xlink:href="#m44d741543e" y="202.856118"/>
    </g>
   </g>
   <g id="matplotlib.axis_1">
    <g id="xtick_1">
     <g id="line2d_1">
      <path clip-path="url(#p2df192ffb0)" d="M 42.143182 224.64 
L 42.143182 7.2 
" style="fill:none;stroke:#b0b0b0;stroke-dasharray:0.8,1.32;stroke-dashoffset:0;stroke-width:0.8;"/>
     </g>
     <g id="line2d_2">
      <defs>
       <path d="M 0 0 
L 0 3.5 
" id="m03e3dbe3e7" style="stroke:#000000;stroke-width:0.8;"/>
      </defs>
      <g>
       <use style="stroke:#000000;stroke-width:0.8;" x="42.143182" xlink:href="#m03e3dbe3e7" y="224.64"/>
      </g>
     </g>
     <g id="text_1">
      <!-- 0.0 -->
      <g transform="translate(34.191619 239.238437)scale(0.1 -0.1)">
       <defs>
        <path d="M 2034 4250 
Q 1547 4250 1301 3770 
Q 1056 3291 1056 2328 
Q 1056 1369 1301 889 
Q 1547 409 2034 409 
Q 2525 409 2770 889 
Q 3016 1369 3016 2328 
Q 3016 3291 2770 3770 
Q 2525 4250 2034 4250 
z
M 2034 4750 
Q 2819 4750 3233 4129 
Q 3647 3509 3647 2328 
Q 3647 1150 3233 529 
Q 2819 -91 2034 -91 
Q 1250 -91 836 529 
Q 422 1150 422 2328 
Q 422 3509 836 4129 
Q 1250 4750 2034 4750 
z
" id="DejaVuSans-30" transform="scale(0.015625)"/>
        <path d="M 684 794 
L 1344 794 
L 1344 0 
L 684 0 
L 684 794 
z
" id="DejaVuSans-2e" transform="scale(0.015625)"/>
       </defs>
       <use xlink:href="#DejaVuSans-30"/>
       <use x="63.623047" xlink:href="#DejaVuSans-2e"/>
       <use x="95.410156" xlink:href="#DejaVuSans-30"/>
      </g>
     </g>
    </g>
    <g id="xtick_2">
     <g id="line2d_3">
      <path clip-path="url(#p2df192ffb0)" d="M 103.630785 224.64 
L 103.630785 7.2 
" style="fill:none;stroke:#b0b0b0;stroke-dasharray:0.8,1.32;stroke-dashoffset:0;stroke-width:0.8;"/>
     </g>
     <g id="line2d_4">
      <g>
       <use style="stroke:#000000;stroke-width:0.8;" x="103.630785" xlink:href="#m03e3dbe3e7" y="224.64"/>
      </g>
     </g>
     <g id="text_2">
      <!-- 0.2 -->
      <g transform="translate(95.679223 239.238437)scale(0.1 -0.1)">
       <defs>
        <path d="M 1228 531 
L 3431 531 
L 3431 0 
L 469 0 
L 469 531 
Q 828 903 1448 1529 
Q 2069 2156 2228 2338 
Q 2531 2678 2651 2914 
Q 2772 3150 2772 3378 
Q 2772 3750 2511 3984 
Q 2250 4219 1831 4219 
Q 1534 4219 1204 4116 
Q 875 4013 500 3803 
L 500 4441 
Q 881 4594 1212 4672 
Q 1544 4750 1819 4750 
Q 2544 4750 2975 4387 
Q 3406 4025 3406 3419 
Q 3406 3131 3298 2873 
Q 3191 2616 2906 2266 
Q 2828 2175 2409 1742 
Q 1991 1309 1228 531 
z
" id="DejaVuSans-32" transform="scale(0.015625)"/>
       </defs>
       <use xlink:href="#DejaVuSans-30"/>
       <use x="63.623047" xlink:href="#DejaVuSans-2e"/>
       <use x="95.410156" xlink:href="#DejaVuSans-32"/>
      </g>
     </g>
    </g>
    <g id="xtick_3">
     <g id="line2d_5">
      <path clip-path="url(#p2df192ffb0)" d="M 165.118388 224.64 
L 165.118388 7.2 
" style="fill:none;stroke:#b0b0b0;stroke-dasharray:0.8,1.32;stroke-dashoffset:0;stroke-width:0.8;"/>
     </g>
     <g id="line2d_6">
      <g>
       <use style="stroke:#000000;stroke-width:0.8;" x="165.118388" xlink:href="#m03e3dbe3e7" y="224.64"/>
      </g>
     </g>
     <g id="text_3">
      <!-- 0.4 -->
      <g transform="translate(157.166826 239.238437)scale(0.1 -0.1)">
       <defs>
        <path d="M 2419 4116 
L 825 1625 
L 2419 1625 
L 2419 4116 
z
M 2253 4666 
L 3047 4666 
L 3047 1625 
L 3713 1625 
L 3713 1100 
L 3047 1100 
L 3047 0 
L 2419 0 
L 2419 1100 
L 313 1100 
L 313 1709 
L 2253 4666 
z
" id="DejaVuSans-34" transform="scale(0.015625)"/>
       </defs>
       <use xlink:href="#DejaVuSans-30"/>
       <use x="63.623047" xlink:href="#DejaVuSans-2e"/>
       <use x="95.410156" xlink:href="#DejaVuSans-34"/>
      </g>
     </g>
    </g>
    <g id="xtick_4">
     <g id="line2d_7">
      <path clip-path="url(#p2df192ffb0)" d="M 226.605992 224.64 
L 226.605992 7.2 
" style="fill:none;stroke:#b0b0b0;stroke-dasharray:0.8,1.32;stroke-dashoffset:0;stroke-width:0.8;"/>
     </g>
     <g id="line2d_8">
      <g>
       <use style="stroke:#000000;stroke-width:0.8;" x="226.605992" xlink:href="#m03e3dbe3e7" y="224.64"/>
      </g>
     </g>
     <g id="text_4">
      <!-- 0.6 -->
      <g transform="translate(218.654429 239.238437)scale(0.1 -0.1)">
       <defs>
        <path d="M 2113 2584 
Q 1688 2584 1439 2293 
Q 1191 2003 1191 1497 
Q 1191 994 1439 701 
Q 1688 409 2113 409 
Q 2538 409 2786 701 
Q 3034 994 3034 1497 
Q 3034 2003 2786 2293 
Q 2538 2584 2113 2584 
z
M 3366 4563 
L 3366 3988 
Q 3128 4100 2886 4159 
Q 2644 4219 2406 4219 
Q 1781 4219 1451 3797 
Q 1122 3375 1075 2522 
Q 1259 2794 1537 2939 
Q 1816 3084 2150 3084 
Q 2853 3084 3261 2657 
Q 3669 2231 3669 1497 
Q 3669 778 3244 343 
Q 2819 -91 2113 -91 
Q 1303 -91 875 529 
Q 447 1150 447 2328 
Q 447 3434 972 4092 
Q 1497 4750 2381 4750 
Q 2619 4750 2861 4703 
Q 3103 4656 3366 4563 
z
" id="DejaVuSans-36" transform="scale(0.015625)"/>
       </defs>
       <use xlink:href="#DejaVuSans-30"/>
       <use x="63.623047" xlink:href="#DejaVuSans-2e"/>
       <use x="95.410156" xlink:href="#DejaVuSans-36"/>
      </g>
     </g>
    </g>
    <g id="xtick_5">
     <g id="line2d_9">
      <path clip-path="url(#p2df192ffb0)" d="M 288.093595 224.64 
L 288.093595 7.2 
" style="fill:none;stroke:#b0b0b0;stroke-dasharray:0.8,1.32;stroke-dashoffset:0;stroke-width:0.8;"/>
     </g>
     <g id="line2d_10">
      <g>
       <use style="stroke:#000000;stroke-width:0.8;" x="288.093595" xlink:href="#m03e3dbe3e7" y="224.64"/>
      </g>
     </g>
     <g id="text_5">
      <!-- 0.8 -->
      <g transform="translate(280.142033 239.238437)scale(0.1 -0.1)">
       <defs>
        <path d="M 2034 2216 
Q 1584 2216 1326 1975 
Q 1069 1734 1069 1313 
Q 1069 891 1326 650 
Q 1584 409 2034 409 
Q 2484 409 2743 651 
Q 3003 894 3003 1313 
Q 3003 1734 2745 1975 
Q 2488 2216 2034 2216 
z
M 1403 2484 
Q 997 2584 770 2862 
Q 544 3141 544 3541 
Q 544 4100 942 4425 
Q 1341 4750 2034 4750 
Q 2731 4750 3128 4425 
Q 3525 4100 3525 3541 
Q 3525 3141 3298 2862 
Q 3072 2584 2669 2484 
Q 3125 2378 3379 2068 
Q 3634 1759 3634 1313 
Q 3634 634 3220 271 
Q 2806 -91 2034 -91 
Q 1263 -91 848 271 
Q 434 634 434 1313 
Q 434 1759 690 2068 
Q 947 2378 1403 2484 
z
M 1172 3481 
Q 1172 3119 1398 2916 
Q 1625 2713 2034 2713 
Q 2441 2713 2670 2916 
Q 2900 3119 2900 3481 
Q 2900 3844 2670 4047 
Q 2441 4250 2034 4250 
Q 1625 4250 1398 4047 
Q 1172 3844 1172 3481 
z
" id="DejaVuSans-38" transform="scale(0.015625)"/>
       </defs>
       <use xlink:href="#DejaVuSans-30"/>
       <use x="63.623047" xlink:href="#DejaVuSans-2e"/>
       <use x="95.410156" xlink:href="#DejaVuSans-38"/>
      </g>
     </g>
    </g>
    <g id="xtick_6">
     <g id="line2d_11">
      <path clip-path="url(#p2df192ffb0)" d="M 349.581198 224.64 
L 349.581198 7.2 
" style="fill:none;stroke:#b0b0b0;stroke-dasharray:0.8,1.32;stroke-dashoffset:0;stroke-width:0.8;"/>
     </g>
     <g id="line2d_12">
      <g>
       <use style="stroke:#000000;stroke-width:0.8;" x="349.581198" xlink:href="#m03e3dbe3e7" y="224.64"/>
      </g>
     </g>
     <g id="text_6">
      <!-- 1.0 -->
      <g transform="translate(341.629636 239.238437)scale(0.1 -0.1)">
       <defs>
        <path d="M 794 531 
L 1825 531 
L 1825 4091 
L 703 3866 
L 703 4441 
L 1819 4666 
L 2450 4666 
L 2450 531 
L 3481 531 
L 3481 0 
L 794 0 
L 794 531 
z
" id="DejaVuSans-31" transform="scale(0.015625)"/>
       </defs>
       <use xlink:href="#DejaVuSans-31"/>
       <use x="63.623047" xlink:href="#DejaVuSans-2e"/>
       <use x="95.410156" xlink:href="#DejaVuSans-30"/>
      </g>
     </g>
    </g>
   </g>
   <g id="matplotlib.axis_2">
    <g id="ytick_1">
     <g id="line2d_13">
      <path clip-path="url(#p2df192ffb0)" d="M 26.925 215.598616 
L 361.725 215.598616 
" style="fill:none;stroke:#b0b0b0;stroke-dasharray:0.8,1.32;stroke-dashoffset:0;stroke-width:0.8;"/>
     </g>
     <g id="line2d_14">
      <defs>
       <path d="M 0 0 
L -3.5 0 
" id="m4b0698eaba" style="stroke:#000000;stroke-width:0.8;"/>
      </defs>
      <g>
       <use style="stroke:#000000;stroke-width:0.8;" x="26.925" xlink:href="#m4b0698eaba" y="215.598616"/>
      </g>
     </g>
     <g id="text_7">
      <!-- 0 -->
      <g transform="translate(13.5625 219.397835)scale(0.1 -0.1)">
       <use xlink:href="#DejaVuSans-30"/>
      </g>
     </g>
    </g>
    <g id="ytick_2">
     <g id="line2d_15">
      <path clip-path="url(#p2df192ffb0)" d="M 26.925 171.488557 
L 361.725 171.488557 
" style="fill:none;stroke:#b0b0b0;stroke-dasharray:0.8,1.32;stroke-dashoffset:0;stroke-width:0.8;"/>
     </g>
     <g id="line2d_16">
      <g>
       <use style="stroke:#000000;stroke-width:0.8;" x="26.925" xlink:href="#m4b0698eaba" y="171.488557"/>
      </g>
     </g>
     <g id="text_8">
      <!-- 5 -->
      <g transform="translate(13.5625 175.287776)scale(0.1 -0.1)">
       <defs>
        <path d="M 691 4666 
L 3169 4666 
L 3169 4134 
L 1269 4134 
L 1269 2991 
Q 1406 3038 1543 3061 
Q 1681 3084 1819 3084 
Q 2600 3084 3056 2656 
Q 3513 2228 3513 1497 
Q 3513 744 3044 326 
Q 2575 -91 1722 -91 
Q 1428 -91 1123 -41 
Q 819 9 494 109 
L 494 744 
Q 775 591 1075 516 
Q 1375 441 1709 441 
Q 2250 441 2565 725 
Q 2881 1009 2881 1497 
Q 2881 1984 2565 2268 
Q 2250 2553 1709 2553 
Q 1456 2553 1204 2497 
Q 953 2441 691 2322 
L 691 4666 
z
" id="DejaVuSans-35" transform="scale(0.015625)"/>
       </defs>
       <use xlink:href="#DejaVuSans-35"/>
      </g>
     </g>
    </g>
    <g id="ytick_3">
     <g id="line2d_17">
      <path clip-path="url(#p2df192ffb0)" d="M 26.925 127.378498 
L 361.725 127.378498 
" style="fill:none;stroke:#b0b0b0;stroke-dasharray:0.8,1.32;stroke-dashoffset:0;stroke-width:0.8;"/>
     </g>
     <g id="line2d_18">
      <g>
       <use style="stroke:#000000;stroke-width:0.8;" x="26.925" xlink:href="#m4b0698eaba" y="127.378498"/>
      </g>
     </g>
     <g id="text_9">
      <!-- 10 -->
      <g transform="translate(7.2 131.177717)scale(0.1 -0.1)">
       <use xlink:href="#DejaVuSans-31"/>
       <use x="63.623047" xlink:href="#DejaVuSans-30"/>
      </g>
     </g>
    </g>
    <g id="ytick_4">
     <g id="line2d_19">
      <path clip-path="url(#p2df192ffb0)" d="M 26.925 83.268439 
L 361.725 83.268439 
" style="fill:none;stroke:#b0b0b0;stroke-dasharray:0.8,1.32;stroke-dashoffset:0;stroke-width:0.8;"/>
     </g>
     <g id="line2d_20">
      <g>
       <use style="stroke:#000000;stroke-width:0.8;" x="26.925" xlink:href="#m4b0698eaba" y="83.268439"/>
      </g>
     </g>
     <g id="text_10">
      <!-- 15 -->
      <g transform="translate(7.2 87.067658)scale(0.1 -0.1)">
       <use xlink:href="#DejaVuSans-31"/>
       <use x="63.623047" xlink:href="#DejaVuSans-35"/>
      </g>
     </g>
    </g>
    <g id="ytick_5">
     <g id="line2d_21">
      <path clip-path="url(#p2df192ffb0)" d="M 26.925 39.15838 
L 361.725 39.15838 
" style="fill:none;stroke:#b0b0b0;stroke-dasharray:0.8,1.32;stroke-dashoffset:0;stroke-width:0.8;"/>
     </g>
     <g id="line2d_22">
      <g>
       <use style="stroke:#000000;stroke-width:0.8;" x="26.925" xlink:href="#m4b0698eaba" y="39.15838"/>
      </g>
     </g>
     <g id="text_11">
      <!-- 20 -->
      <g transform="translate(7.2 42.957598)scale(0.1 -0.1)">
       <use xlink:href="#DejaVuSans-32"/>
       <use x="63.623047" xlink:href="#DejaVuSans-30"/>
      </g>
     </g>
    </g>
   </g>
   <g id="line2d_23">
    <path clip-path="url(#p2df192ffb0)" d="M 42.143182 200.601196 
L 45.217562 200.645306 
L 48.291942 200.689416 
L 51.366322 200.733526 
L 54.440702 200.777636 
L 57.515083 200.821747 
L 60.589463 200.865857 
L 63.663843 200.909967 
L 66.738223 200.954077 
L 69.812603 200.998187 
L 72.886983 201.042297 
L 75.961364 201.086407 
L 79.035744 201.130517 
L 82.110124 201.174627 
L 85.184504 201.218737 
L 88.258884 201.262847 
L 91.333264 201.306957 
L 94.407645 201.351067 
L 97.482025 201.395177 
L 100.556405 201.439287 
L 103.630785 201.483397 
L 106.705165 201.527507 
L 109.779545 201.571618 
L 112.853926 201.615728 
L 115.928306 201.659838 
L 119.002686 201.703948 
L 122.077066 201.748058 
L 125.151446 201.792168 
L 128.225826 201.836278 
L 131.300207 201.880388 
L 134.374587 201.924498 
L 137.448967 201.968608 
L 140.523347 202.012718 
L 143.597727 202.056828 
L 146.672107 202.100938 
L 149.746488 202.145048 
L 152.820868 202.189158 
L 155.895248 202.233268 
L 158.969628 202.277378 
L 162.044008 202.321489 
L 165.118388 202.365599 
L 168.192769 202.409709 
L 171.267149 202.453819 
L 174.341529 202.497929 
L 177.415909 202.542039 
L 180.490289 202.586149 
L 183.564669 202.630259 
L 186.63905 202.674369 
L 189.71343 202.718479 
L 192.78781 202.762589 
L 195.86219 202.806699 
L 198.93657 202.850809 
L 202.01095 202.894919 
L 205.085331 202.939029 
L 208.159711 202.983139 
L 211.234091 203.027249 
L 214.308471 203.07136 
L 217.382851 203.11547 
L 220.457231 203.15958 
L 223.531612 203.20369 
L 226.605992 203.2478 
L 229.680372 203.29191 
L 232.754752 203.33602 
L 235.829132 203.38013 
L 238.903512 203.42424 
L 241.977893 203.46835 
L 245.052273 203.51246 
L 248.126653 203.55657 
L 251.201033 203.60068 
L 254.275413 203.64479 
L 257.349793 203.6889 
L 260.424174 203.73301 
L 263.498554 203.77712 
L 266.572934 203.821231 
L 269.647314 203.865341 
L 272.721694 203.909451 
L 275.796074 203.953561 
L 278.870455 203.997671 
L 281.944835 204.041781 
L 285.019215 204.085891 
L 288.093595 204.130001 
L 291.167975 204.174111 
L 294.242355 204.218221 
L 297.316736 204.262331 
L 300.391116 204.306441 
L 303.465496 204.350551 
L 306.539876 204.394661 
L 309.614256 204.438771 
L 312.688636 204.482881 
L 315.763017 204.526991 
L 318.837397 204.571102 
L 321.911777 204.615212 
L 324.986157 204.659322 
L 328.060537 204.703432 
L 331.134917 204.747542 
L 334.209298 204.791652 
L 337.283678 204.835762 
L 340.358058 204.879872 
L 343.432438 204.923982 
L 346.506818 204.968092 
" style="fill:none;stroke:#ff0000;stroke-linecap:square;stroke-width:2;"/>
   </g>
   <g id="patch_3">
    <path d="M 26.925 224.64 
L 26.925 7.2 
" style="fill:none;stroke:#000000;stroke-linecap:square;stroke-linejoin:miter;stroke-width:0.8;"/>
   </g>
   <g id="patch_4">
    <path d="M 361.725 224.64 
L 361.725 7.2 
" style="fill:none;stroke:#000000;stroke-linecap:square;stroke-linejoin:miter;stroke-width:0.8;"/>
   </g>
   <g id="patch_5">
    <path d="M 26.925 224.64 
L 361.725 224.64 
" style="fill:none;stroke:#000000;stroke-linecap:square;stroke-linejoin:miter;stroke-width:0.8;"/>
   </g>
   <g id="patch_6">
    <path d="M 26.925 7.2 
L 361.725 7.2 
" style="fill:none;stroke:#000000;stroke-linecap:square;stroke-linejoin:miter;stroke-width:0.8;"/>
   </g>
   <g id="legend_1">
    <g id="patch_7">
     <path d="M 258.14375 44.55625 
L 354.725 44.55625 
Q 356.725 44.55625 356.725 42.55625 
L 356.725 14.2 
Q 356.725 12.2 354.725 12.2 
L 258.14375 12.2 
Q 256.14375 12.2 256.14375 14.2 
L 256.14375 42.55625 
Q 256.14375 44.55625 258.14375 44.55625 
z
" style="fill:#ffffff;opacity:0.8;stroke:#cccccc;stroke-linejoin:miter;"/>
    </g>
    <g id="line2d_24">
     <path d="M 260.14375 20.298437 
L 280.14375 20.298437 
" style="fill:none;stroke:#ff0000;stroke-linecap:square;stroke-width:2;"/>
    </g>
    <g id="line2d_25"/>
    <g id="text_12">
     <!-- Ground truth -->
     <g transform="translate(288.14375 23.798437)scale(0.1 -0.1)">
      <defs>
       <path d="M 3809 666 
L 3809 1919 
L 2778 1919 
L 2778 2438 
L 4434 2438 
L 4434 434 
Q 4069 175 3628 42 
Q 3188 -91 2688 -91 
Q 1594 -91 976 548 
Q 359 1188 359 2328 
Q 359 3472 976 4111 
Q 1594 4750 2688 4750 
Q 3144 4750 3555 4637 
Q 3966 4525 4313 4306 
L 4313 3634 
Q 3963 3931 3569 4081 
Q 3175 4231 2741 4231 
Q 1884 4231 1454 3753 
Q 1025 3275 1025 2328 
Q 1025 1384 1454 906 
Q 1884 428 2741 428 
Q 3075 428 3337 486 
Q 3600 544 3809 666 
z
" id="DejaVuSans-47" transform="scale(0.015625)"/>
       <path d="M 2631 2963 
Q 2534 3019 2420 3045 
Q 2306 3072 2169 3072 
Q 1681 3072 1420 2755 
Q 1159 2438 1159 1844 
L 1159 0 
L 581 0 
L 581 3500 
L 1159 3500 
L 1159 2956 
Q 1341 3275 1631 3429 
Q 1922 3584 2338 3584 
Q 2397 3584 2469 3576 
Q 2541 3569 2628 3553 
L 2631 2963 
z
" id="DejaVuSans-72" transform="scale(0.015625)"/>
       <path d="M 1959 3097 
Q 1497 3097 1228 2736 
Q 959 2375 959 1747 
Q 959 1119 1226 758 
Q 1494 397 1959 397 
Q 2419 397 2687 759 
Q 2956 1122 2956 1747 
Q 2956 2369 2687 2733 
Q 2419 3097 1959 3097 
z
M 1959 3584 
Q 2709 3584 3137 3096 
Q 3566 2609 3566 1747 
Q 3566 888 3137 398 
Q 2709 -91 1959 -91 
Q 1206 -91 779 398 
Q 353 888 353 1747 
Q 353 2609 779 3096 
Q 1206 3584 1959 3584 
z
" id="DejaVuSans-6f" transform="scale(0.015625)"/>
       <path d="M 544 1381 
L 544 3500 
L 1119 3500 
L 1119 1403 
Q 1119 906 1312 657 
Q 1506 409 1894 409 
Q 2359 409 2629 706 
Q 2900 1003 2900 1516 
L 2900 3500 
L 3475 3500 
L 3475 0 
L 2900 0 
L 2900 538 
Q 2691 219 2414 64 
Q 2138 -91 1772 -91 
Q 1169 -91 856 284 
Q 544 659 544 1381 
z
M 1991 3584 
L 1991 3584 
z
" id="DejaVuSans-75" transform="scale(0.015625)"/>
       <path d="M 3513 2113 
L 3513 0 
L 2938 0 
L 2938 2094 
Q 2938 2591 2744 2837 
Q 2550 3084 2163 3084 
Q 1697 3084 1428 2787 
Q 1159 2491 1159 1978 
L 1159 0 
L 581 0 
L 581 3500 
L 1159 3500 
L 1159 2956 
Q 1366 3272 1645 3428 
Q 1925 3584 2291 3584 
Q 2894 3584 3203 3211 
Q 3513 2838 3513 2113 
z
" id="DejaVuSans-6e" transform="scale(0.015625)"/>
       <path d="M 2906 2969 
L 2906 4863 
L 3481 4863 
L 3481 0 
L 2906 0 
L 2906 525 
Q 2725 213 2448 61 
Q 2172 -91 1784 -91 
Q 1150 -91 751 415 
Q 353 922 353 1747 
Q 353 2572 751 3078 
Q 1150 3584 1784 3584 
Q 2172 3584 2448 3432 
Q 2725 3281 2906 2969 
z
M 947 1747 
Q 947 1113 1208 752 
Q 1469 391 1925 391 
Q 2381 391 2643 752 
Q 2906 1113 2906 1747 
Q 2906 2381 2643 2742 
Q 2381 3103 1925 3103 
Q 1469 3103 1208 2742 
Q 947 2381 947 1747 
z
" id="DejaVuSans-64" transform="scale(0.015625)"/>
       <path id="DejaVuSans-20" transform="scale(0.015625)"/>
       <path d="M 1172 4494 
L 1172 3500 
L 2356 3500 
L 2356 3053 
L 1172 3053 
L 1172 1153 
Q 1172 725 1289 603 
Q 1406 481 1766 481 
L 2356 481 
L 2356 0 
L 1766 0 
Q 1100 0 847 248 
Q 594 497 594 1153 
L 594 3053 
L 172 3053 
L 172 3500 
L 594 3500 
L 594 4494 
L 1172 4494 
z
" id="DejaVuSans-74" transform="scale(0.015625)"/>
       <path d="M 3513 2113 
L 3513 0 
L 2938 0 
L 2938 2094 
Q 2938 2591 2744 2837 
Q 2550 3084 2163 3084 
Q 1697 3084 1428 2787 
Q 1159 2491 1159 1978 
L 1159 0 
L 581 0 
L 581 4863 
L 1159 4863 
L 1159 2956 
Q 1366 3272 1645 3428 
Q 1925 3584 2291 3584 
Q 2894 3584 3203 3211 
Q 3513 2838 3513 2113 
z
" id="DejaVuSans-68" transform="scale(0.015625)"/>
      </defs>
      <use xlink:href="#DejaVuSans-47"/>
      <use x="77.490234" xlink:href="#DejaVuSans-72"/>
      <use x="116.353516" xlink:href="#DejaVuSans-6f"/>
      <use x="177.535156" xlink:href="#DejaVuSans-75"/>
      <use x="240.914062" xlink:href="#DejaVuSans-6e"/>
      <use x="304.292969" xlink:href="#DejaVuSans-64"/>
      <use x="367.769531" xlink:href="#DejaVuSans-20"/>
      <use x="399.556641" xlink:href="#DejaVuSans-74"/>
      <use x="438.765625" xlink:href="#DejaVuSans-72"/>
      <use x="479.878906" xlink:href="#DejaVuSans-75"/>
      <use x="543.257812" xlink:href="#DejaVuSans-74"/>
      <use x="582.466797" xlink:href="#DejaVuSans-68"/>
     </g>
    </g>
    <g id="PathCollection_2">
     <g>
      <use style="fill:#0000ff;stroke:#0000ff;" x="270.14375" xlink:href="#m44d741543e" y="35.851562"/>
     </g>
    </g>
    <g id="text_13">
     <!-- Data -->
     <g transform="translate(288.14375 38.476562)scale(0.1 -0.1)">
      <defs>
       <path d="M 1259 4147 
L 1259 519 
L 2022 519 
Q 2988 519 3436 956 
Q 3884 1394 3884 2338 
Q 3884 3275 3436 3711 
Q 2988 4147 2022 4147 
L 1259 4147 
z
M 628 4666 
L 1925 4666 
Q 3281 4666 3915 4102 
Q 4550 3538 4550 2338 
Q 4550 1131 3912 565 
Q 3275 0 1925 0 
L 628 0 
L 628 4666 
z
" id="DejaVuSans-44" transform="scale(0.015625)"/>
       <path d="M 2194 1759 
Q 1497 1759 1228 1600 
Q 959 1441 959 1056 
Q 959 750 1161 570 
Q 1363 391 1709 391 
Q 2188 391 2477 730 
Q 2766 1069 2766 1631 
L 2766 1759 
L 2194 1759 
z
M 3341 1997 
L 3341 0 
L 2766 0 
L 2766 531 
Q 2569 213 2275 61 
Q 1981 -91 1556 -91 
Q 1019 -91 701 211 
Q 384 513 384 1019 
Q 384 1609 779 1909 
Q 1175 2209 1959 2209 
L 2766 2209 
L 2766 2266 
Q 2766 2663 2505 2880 
Q 2244 3097 1772 3097 
Q 1472 3097 1187 3025 
Q 903 2953 641 2809 
L 641 3341 
Q 956 3463 1253 3523 
Q 1550 3584 1831 3584 
Q 2591 3584 2966 3190 
Q 3341 2797 3341 1997 
z
" id="DejaVuSans-61" transform="scale(0.015625)"/>
      </defs>
      <use xlink:href="#DejaVuSans-44"/>
      <use x="77.001953" xlink:href="#DejaVuSans-61"/>
      <use x="138.28125" xlink:href="#DejaVuSans-74"/>
      <use x="177.490234" xlink:href="#DejaVuSans-61"/>
     </g>
    </g>
   </g>
  </g>
 </g>
 <defs>
  <clipPath id="p2df192ffb0">
   <rect height="217.44" width="334.8" x="26.925" y="7.2"/>
  </clipPath>
 </defs>
</svg>